<?xml version="1.0" encoding="utf-8"?>
<!-- Generator: Adobe Illustrator 19.0.0, SVG Export Plug-In . SVG Version: 6.00 Build 0)  -->
<svg version="1.1" id="Layer_1" xmlns="http://www.w3.org/2000/svg" xmlns:xlink="http://www.w3.org/1999/xlink" x="0px" y="0px"
	 viewBox="0 0 24 24" style="enable-background:new 0 0 24 24;" xml:space="preserve">
<style type="text/css">
	.st0{fill:#010101;}
</style>
<g id="XMLID_3_">
	<path id="XMLID_4_" d="M4.8,13.2l-0.4-0.1l-0.4-0.1l-0.4-0.3l-0.2-0.3L3.4,12V1.3c0-0.1,0-0.1,0.1-0.2C3.5,1,3.6,1,3.7,1h6l0.4,0.1
		l0.4,0.1l0.4,0.1l0.4,0.1l0.4,0.3l0.4,0.3l0.4,0.3l0.4,0.3L12.7,3l0.2,0.3l0.2,0.3l0.2,0.3v1.7l-0.2,0.3l-0.2,0.3l-0.2,0.3
		l-0.2,0.3l-0.4,0.3l-0.4,0.3l-0.4,0.3L11.1,8l0.2,0.3l0.2,0.3l0.2,0.3l0.2,0.3L12,9.4l0.2,0.3l0.2,0.3l0.2,0.3l0.2,0.3l0.2,0.3
		l0.2,0.3l0.2,0.3V12l-0.2,0.3l-0.2,0.3l-0.4,0.3l-0.4,0.1l-0.4,0.1h-0.7l-0.4-0.1l-0.4-0.1l-0.4-0.3l-0.2-0.3L9.7,12l-0.2-0.3
		l-0.2-0.3l-0.2-0.3L9,10.9l-0.2-0.3l-0.2-0.3L8.5,10L8.3,9.7L8.1,9.4L8,9.1L7.8,8.8L7.6,8.5H6.9V12l-0.2,0.3l-0.2,0.3l-0.4,0.3
		l-0.4,0.1l-0.4,0.1H4.8z M9,5.6l0.4-0.1l0.2-0.1l0.2-0.3V4.5L9.5,4.2L9.4,4L9,3.9H6.9v1.7H9z"/>
</g>
<g id="XMLID_37_">
	<path id="XMLID_2_" class="st0" d="M22,13.2l-1.3-1.3c-0.2-0.2-0.4-0.3-0.7-0.3c-0.3,0-0.5,0.1-0.7,0.3l-6,6
		c-0.2,0.2-0.4,0.2-0.6,0l-2.5-2.5c-0.2-0.2-0.4-0.3-0.7-0.3c-0.3,0-0.5,0.1-0.7,0.3l-1.3,1.3c-0.2,0.2-0.3,0.4-0.3,0.7
		c0,0.3,0.1,0.5,0.3,0.7l3.5,3.5l1.3,1.3c0.2,0.2,0.4,0.3,0.7,0.3c0.3,0,0.5-0.1,0.7-0.3l1.3-1.3l6.9-6.9c0.2-0.2,0.3-0.4,0.3-0.7
		C22.3,13.6,22.2,13.4,22,13.2z"/>
</g>
</svg>
