<?xml version="1.0" encoding="utf-8"?>
<!-- Generator: Adobe Illustrator 19.0.0, SVG Export Plug-In . SVG Version: 6.00 Build 0)  -->
<svg version="1.1" xmlns="http://www.w3.org/2000/svg" xmlns:xlink="http://www.w3.org/1999/xlink" x="0px" y="0px"
	 viewBox="0 0 320 312" style="enable-background:new 0 0 320 312;" xml:space="preserve">
<style type="text/css">
	.st0{fill:url(#SVGID_1_);stroke:url(#SVGID_2_);stroke-width:25;stroke-miterlimit:10;}
	.st1{fill:url(#SVGID_3_);}
	.st2{fill:url(#SVGID_4_);}
</style>
<g id="Layer_3">
	<linearGradient id="SVGID_1_" gradientUnits="userSpaceOnUse" x1="159.2045" y1="272.5185" x2="159.2045" y2="20.0167">
		<stop  offset="0" style="stop-color:#17171D"/>
		<stop  offset="1" style="stop-color:#323440"/>
	</linearGradient>
	<linearGradient id="SVGID_2_" gradientUnits="userSpaceOnUse" x1="159.2045" y1="297.2738" x2="159.2045" y2="7.5167">
		<stop  offset="0" style="stop-color:#BABDC5"/>
		<stop  offset="1" style="stop-color:#E8EAED"/>
	</linearGradient>
	<path class="st0" d="M26.1,123.6l-0.9-64.2C24.8,38.1,42,20.6,63.3,20.6L259.2,20c18.2-0.1,32.9,14.6,33.1,32.7l1,135.7
		c0.1,16.1-12.9,29.3-29,29.3h-94.4l-75.6,54.8l0.7-54.8H62c-18.7,0-34-15-34.5-33.7L26.1,123.6z"/>
</g>
<g id="Layer_2">
	<linearGradient id="SVGID_3_" gradientUnits="userSpaceOnUse" x1="206" y1="133.853" x2="206" y2="112.103">
		<stop  offset="0" style="stop-color:#3884C4"/>
		<stop  offset="1" style="stop-color:#62A6DA"/>
	</linearGradient>
	<circle class="st1" cx="206" cy="123" r="10.9"/>
	<g>
		<linearGradient id="SVGID_4_" gradientUnits="userSpaceOnUse" x1="151.1284" y1="174.2275" x2="151.1284" y2="65.7896">
			<stop  offset="0" style="stop-color:#6BA643"/>
			<stop  offset="1" style="stop-color:#A6CE39"/>
		</linearGradient>
		<path class="st2" d="M125.3,174.2l-2.6-1.3l-2.6-1.3l-2.6-2.6l-1.3-2.6l-1.3-2.6v-5.2l1.3-2.6l1.3-2.6l1.3-2.6l1.3-2.6l1.3-2.6
			l1.3-2.6l1.3-2.6l1.3-2.6l1.3-2.6l1.3-2.6l1.3-2.6l1.3-2.6l1.3-2.6l1.3-2.6l1.3-2.6l-1.3-2.6l-1.3-2.6l-1.3-2.6l-1.3-2.6l-1.3-2.6
			l-1.3-2.6l-1.3-2.6l-1.3-2.6l-1.3-2.6l-1.3-2.6l-1.3-2.6l-1.3-2.6l-1.3-2.6l-1.3-2.6l-1.3-2.6v-5.2l1.3-2.6l1.3-2.6l2.6-2.6
			l2.6-1.3l2.6-1.3h5.2l2.6,1.3l2.6,1.3l2.6,2.6l1.3,2.6l1.3,2.6l1.3,2.6l1.3,2.6l1.3,2.6l1.3,2.6l1.3,2.6l1.3,2.6l1.3,2.6l1.3,2.6
			l1.3-2.6l1.3-2.6L155,89l1.3-2.6l1.3-2.6l1.3-2.6l1.3-2.6l1.3-2.6l1.3-2.6L164,71l2.6-2.6l2.6-1.3l2.6-1.3h5.2l2.6,1.3l2.6,1.3
			l2.6,2.6l1.3,2.6l1.3,2.6v5.2l-1.3,2.6l-1.3,2.6l-1.3,2.6l-1.3,2.6l-1.3,2.6l-1.3,2.6l-1.3,2.6l-1.3,2.6l-1.3,2.6l-1.3,2.6
			l-1.3,2.6l-1.3,2.6l-1.3,2.6l-1.3,2.6l-1.3,2.6l1.3,2.6l1.3,2.6l1.3,2.6l1.3,2.6l1.3,2.6l1.3,2.6l1.3,2.6l1.3,2.6l1.3,2.6l1.3,2.6
			l1.3,2.6l1.3,2.6l1.3,2.6l1.3,2.6l1.3,2.6v5.2l-1.3,2.6l-1.3,2.6l-2.6,2.6l-2.6,1.3l-2.6,1.3h-5.2l-2.6-1.3l-2.6-1.3l-2.6-2.6
			l-1.3-2.6l-1.3-2.6l-1.3-2.6l-1.3-2.6l-1.3-2.6l-1.3-2.6L155,151l-1.3-2.6l-1.3-2.6l-1.3-2.6l-1.3,2.6l-1.3,2.6l-1.3,2.6l-1.3,2.6
			l-1.3,2.6l-1.3,2.6l-1.3,2.6l-1.3,2.6l-1.3,2.6l-1.3,2.6l-2.6,2.6l-2.6,1.3l-2.6,1.3H125.3z"/>
	</g>
</g>
</svg>
